<?xml version="1.0" encoding="utf-8"?>
<!-- Generator: Adobe Illustrator 22.1.0, SVG Export Plug-In . SVG Version: 6.00 Build 0)  -->
<svg version="1.1" id="Layer_1" xmlns="http://www.w3.org/2000/svg" xmlns:xlink="http://www.w3.org/1999/xlink" x="0px" y="0px"
	 viewBox="0 0 87.3 87.3" style="enable-background:new 0 0 87.3 87.3;" xml:space="preserve">
<style type="text/css">
	.st0{fill:url(#SVGID_1_);}
	.st1{fill:url(#SVGID_2_);}
	.st2{fill:url(#SVGID_3_);}
	.st3{fill:url(#SVGID_4_);}
	.st4{fill:url(#SVGID_5_);}
</style>
<g>
	<linearGradient id="SVGID_1_" gradientUnits="userSpaceOnUse" x1="1.537799e-04" y1="50.1717" x2="62.424" y2="50.1717">
		<stop  offset="0" style="stop-color:#FFFFFF"/>
		<stop  offset="8.971810e-03" style="stop-color:#FEFAF6"/>
		<stop  offset="5.430734e-02" style="stop-color:#FBE3CD"/>
		<stop  offset="0.1052" style="stop-color:#F8CFA7"/>
		<stop  offset="0.1606" style="stop-color:#F5BD87"/>
		<stop  offset="0.2219" style="stop-color:#F3AE6B"/>
		<stop  offset="0.291" style="stop-color:#F1A255"/>
		<stop  offset="0.3716" style="stop-color:#F09844"/>
		<stop  offset="0.4714" style="stop-color:#EF9239"/>
		<stop  offset="0.6114" style="stop-color:#EE8E32"/>
		<stop  offset="1" style="stop-color:#EE8D30"/>
	</linearGradient>
	<path class="st0" d="M53.3,27.9c-0.4-0.4-0.9-0.9-1.5-1.4c0,0-0.1,0-0.1-0.1c0,0,0,0,0,0c0,0,0,0,0,0c-5.1-4.5-11.3-7.1-18.1-7.6
		c0,0,0,0-0.1,0c0,0,0,0,0,0c-9.1-0.7-17.9,2.6-24.4,9C9,28,8.9,28.2,8.7,28.3c-6.1,6.3-9.3,15-8.7,23.9c0,0,0,0.1,0,0.1
		c0,0,0,0,0,0c0.5,6.8,3.1,13.1,7.6,18.2c0.5,0.6,1,1.1,1.4,1.5c5.3,5.3,12.3,8.8,19.8,9.3c0,0,0.1,0.2,0.1,0.2h0c0,0,0,0,0,0
		c0.7,0,1.5-0.2,2.2-0.2c7.8,0,15.4-3,21-8.3c0.4-0.3,0.7-0.7,1-1c6.4-6.4,9.7-15.3,9.1-24.4C61.8,40.3,58.6,33.2,53.3,27.9z
		 M59.5,46.3c-7.8-0.2-15.3,2.5-21.2,7.5c-1.4-1.5-2.8-3-4.3-4.6c6.1-6.2,11.8-12.7,17.1-19.5c0.1,0.1,0.2,0.2,0.3,0.3
		C55.8,34.4,58.4,40.2,59.5,46.3z M9.1,67.5c-3.2-4-5.2-8.7-5.8-13.8c0.2,0,0.4,0,0.5,0c8.1,0,15.8-3.1,21.7-8.8
		c1.3,1.3,2.5,2.4,3.5,3.5c0.3,0.3,0.6,0.6,0.8,0.8C23.3,55.8,16.3,61.9,9.1,67.5z M27.5,42.7C32.5,37,35.1,29.6,35,22
		c5.1,0.7,9.8,2.6,13.8,5.8C43.6,34.5,38,41,32,47.1c-0.3-0.3-0.5-0.6-0.8-0.8C30.1,45.2,28.9,44,27.5,42.7z M32,21.8
		c0.2,6.9-2.2,13.6-6.6,18.9c-4.3-4-8.8-7.9-13.2-11.5c5.2-4.8,12-7.5,19.1-7.5C31.4,21.8,31.7,21.8,32,21.8z M10,31.4
		c4.5,3.6,8.9,7.4,13.3,11.5c-5.4,5.2-12.7,8-20.3,7.8C2.8,43.6,5.3,36.7,10,31.4z M11.1,69.8C18.3,64.1,25.3,58,32,51.4
		c1.4,1.5,2.8,3,4.2,4.5c-5.7,6-8.8,13.9-8.7,22.1c-6.1-0.8-11.8-3.6-16.2-8C11.2,69.9,11.1,69.8,11.1,69.8z M30.5,78.2
		c-0.2-7.4,2.6-14.6,7.7-20.1c3.9,4.4,7.7,9,11.1,13.6C44,76,37.3,78.4,30.5,78.2z M51.6,69.8c-3.5-4.7-7.3-9.3-11.3-13.7
		c5.4-4.6,12.4-7,19.5-6.7C59.5,56.9,56.9,64.3,51.6,69.8z"/>
	<linearGradient id="SVGID_2_" gradientUnits="userSpaceOnUse" x1="47.3255" y1="10.8832" x2="57.1155" y2="10.8832">
		<stop  offset="0" style="stop-color:#FFFFFF"/>
		<stop  offset="8.971810e-03" style="stop-color:#FEFAF6"/>
		<stop  offset="5.430734e-02" style="stop-color:#FBE3CD"/>
		<stop  offset="0.1052" style="stop-color:#F8CFA7"/>
		<stop  offset="0.1606" style="stop-color:#F5BD87"/>
		<stop  offset="0.2219" style="stop-color:#F3AE6B"/>
		<stop  offset="0.291" style="stop-color:#F1A255"/>
		<stop  offset="0.3716" style="stop-color:#F09844"/>
		<stop  offset="0.4714" style="stop-color:#EF9239"/>
		<stop  offset="0.6114" style="stop-color:#EE8E32"/>
		<stop  offset="1" style="stop-color:#EE8D30"/>
	</linearGradient>
	<path class="st1" d="M48.8,15.8c0.4,0,0.8-0.1,1.1-0.4l6.8-6.8c0.6-0.6,0.6-1.5,0-2.1c-0.6-0.6-1.5-0.6-2.1,0l-6.8,6.8
		c-0.6,0.6-0.6,1.5,0,2.1C48.1,15.6,48.4,15.8,48.8,15.8z"/>
	<linearGradient id="SVGID_3_" gradientUnits="userSpaceOnUse" x1="54.9454" y1="18.0572" x2="65.6055" y2="18.0572">
		<stop  offset="0" style="stop-color:#FFFFFF"/>
		<stop  offset="8.971810e-03" style="stop-color:#FEFAF6"/>
		<stop  offset="5.430734e-02" style="stop-color:#FBE3CD"/>
		<stop  offset="0.1052" style="stop-color:#F8CFA7"/>
		<stop  offset="0.1606" style="stop-color:#F5BD87"/>
		<stop  offset="0.2219" style="stop-color:#F3AE6B"/>
		<stop  offset="0.291" style="stop-color:#F1A255"/>
		<stop  offset="0.3716" style="stop-color:#F09844"/>
		<stop  offset="0.4714" style="stop-color:#EF9239"/>
		<stop  offset="0.6114" style="stop-color:#EE8E32"/>
		<stop  offset="1" style="stop-color:#EE8D30"/>
	</linearGradient>
	<path class="st2" d="M55.4,22.9c0.3,0.3,0.7,0.4,1.1,0.4s0.8-0.1,1.1-0.4l7.7-7.7c0.6-0.6,0.6-1.5,0-2.1c-0.6-0.6-1.5-0.6-2.1,0
		l-7.7,7.7C54.8,21.4,54.8,22.4,55.4,22.9z"/>
	<linearGradient id="SVGID_4_" gradientUnits="userSpaceOnUse" x1="66.2944" y1="8.8875" x2="72.6046" y2="8.8875">
		<stop  offset="0" style="stop-color:#FFFFFF"/>
		<stop  offset="8.971810e-03" style="stop-color:#FEFAF6"/>
		<stop  offset="5.430734e-02" style="stop-color:#FBE3CD"/>
		<stop  offset="0.1052" style="stop-color:#F8CFA7"/>
		<stop  offset="0.1606" style="stop-color:#F5BD87"/>
		<stop  offset="0.2219" style="stop-color:#F3AE6B"/>
		<stop  offset="0.291" style="stop-color:#F1A255"/>
		<stop  offset="0.3716" style="stop-color:#F09844"/>
		<stop  offset="0.4714" style="stop-color:#EF9239"/>
		<stop  offset="0.6114" style="stop-color:#EE8E32"/>
		<stop  offset="1" style="stop-color:#EE8D30"/>
	</linearGradient>
	<path class="st3" d="M67.8,12c0.4,0,0.8-0.1,1.1-0.4l3.3-3.3c0.6-0.6,0.6-1.5,0-2.1c-0.6-0.6-1.5-0.6-2.1,0l-3.3,3.3
		c-0.6,0.6-0.6,1.5,0,2.1C67,11.9,67.4,12,67.8,12z"/>
	<linearGradient id="SVGID_5_" gradientUnits="userSpaceOnUse" x1="62.5555" y1="18.6273" x2="87.3156" y2="18.6273">
		<stop  offset="0" style="stop-color:#FFFFFF"/>
		<stop  offset="8.971810e-03" style="stop-color:#FEFAF6"/>
		<stop  offset="5.430734e-02" style="stop-color:#FBE3CD"/>
		<stop  offset="0.1052" style="stop-color:#F8CFA7"/>
		<stop  offset="0.1606" style="stop-color:#F5BD87"/>
		<stop  offset="0.2219" style="stop-color:#F3AE6B"/>
		<stop  offset="0.291" style="stop-color:#F1A255"/>
		<stop  offset="0.3716" style="stop-color:#F09844"/>
		<stop  offset="0.4714" style="stop-color:#EF9239"/>
		<stop  offset="0.6114" style="stop-color:#EE8E32"/>
		<stop  offset="1" style="stop-color:#EE8D30"/>
	</linearGradient>
	<path class="st4" d="M86.9,6.7c-0.6-0.6-1.5-0.6-2.1,0L63,28.4c-0.6,0.6-0.6,1.5,0,2.1c0.3,0.3,0.7,0.4,1.1,0.4
		c0.4,0,0.8-0.1,1.1-0.4L86.9,8.8C87.5,8.2,87.5,7.3,86.9,6.7z"/>
</g>
</svg>
